PathFileType	4	(X/Y/Z)	C:\Users\italobelli\Desktop\GitHub\PTbot_officialCBL\Personal_Results\ABD02_noisy1.trc
DataRate	CameraRate	NumFrames	NumMarkers	Units	OrigDataRate	OrigDataStartFrame	OrigNumFrames
106.125000	106.125000	51	9	m	106.125000	532	850
Frame#	Time		gu		centelbow		EpL		centpxt8		centijc7		ij		ts		aa		ai
			X1	Y1	Z1	X2	Y2	Z2	X3	Y3	Z3	X4	Y4	Z4	X5	Y5	Z5	X6	Y6	Z6	X7	Y7	Z7	X8	Y8	Z8	X9	Y9	Z9

532	5.0035	-0.11967	0.059763	0.1057	-0.12359	0.22408	0.30722	-0.14043	0.24361	0.28788	-0.046816	-0.15316	-0.008669	-0.046816	0.031938	-0.008669	0	0	0	-0.12634	-0.011306	0.022175	-0.16063	0.06887	0.10353	-0.12731	-0.088423	0.10538
533	5.013	-0.11967	0.059612	0.10603	-0.12364	0.22168	0.30895	-0.14046	0.24141	0.28984	-0.046816	-0.15316	-0.008669	-0.046816	0.031938	-0.008669	0	0	0	-0.12613	-0.011028	0.022041	-0.16062	0.0686	0.1038	-0.12697	-0.088523	0.10466
534	5.0224	-0.11965	0.059463	0.10639	-0.12361	0.21911	0.31071	-0.14043	0.23902	0.29184	-0.046816	-0.15316	-0.008669	-0.046816	0.031938	-0.008669	0	0	0	-0.12592	-0.010736	0.021909	-0.16058	0.068333	0.10409	-0.1266	-0.08862	0.10395
535	5.0318	-0.11962	0.059317	0.10679	-0.12353	0.21636	0.31249	-0.14036	0.23645	0.29388	-0.046816	-0.15316	-0.008669	-0.046816	0.031938	-0.008669	0	0	0	-0.12571	-0.010432	0.021779	-0.16052	0.068066	0.1044	-0.12622	-0.088714	0.10323
536	5.0412	-0.11958	0.059173	0.10722	-0.12338	0.21344	0.31428	-0.14025	0.2337	0.29597	-0.046816	-0.15316	-0.008669	-0.046816	0.031938	-0.008669	0	0	0	-0.1255	-0.010115	0.021651	-0.16043	0.067802	0.10471	-0.12583	-0.088805	0.10252
537	5.0506	-0.11953	0.059033	0.10768	-0.12318	0.21036	0.3161	-0.1401	0.23078	0.29809	-0.046816	-0.15316	-0.008669	-0.046816	0.031938	-0.008669	0	0	0	-0.12529	-0.0097858	0.021526	-0.16033	0.06754	0.10504	-0.12542	-0.088894	0.10181
538	5.0601	-0.11947	0.058894	0.10817	-0.12291	0.20712	0.31793	-0.1399	0.2277	0.30025	-0.046816	-0.15316	-0.008669	-0.046816	0.031938	-0.008669	0	0	0	-0.12508	-0.0094455	0.021402	-0.1602	0.067279	0.10539	-0.125	-0.088979	0.1011
539	5.0695	-0.11941	0.058757	0.10869	-0.1226	0.20373	0.31977	-0.13967	0.22446	0.30243	-0.046816	-0.15316	-0.008669	-0.046816	0.031938	-0.008669	0	0	0	-0.12487	-0.0090942	0.021282	-0.16005	0.06702	0.10574	-0.12457	-0.089062	0.10039
540	5.0789	-0.11933	0.058623	0.10923	-0.12224	0.2002	0.32162	-0.1394	0.22107	0.30465	-0.046816	-0.15316	-0.008669	-0.046816	0.031938	-0.008669	0	0	0	-0.12466	-0.0087323	0.021163	-0.15989	0.066763	0.10611	-0.12413	-0.089141	0.099686
541	5.0883	-0.11924	0.05849	0.1098	-0.12182	0.19652	0.32348	-0.1391	0.21754	0.30688	-0.046816	-0.15316	-0.008669	-0.046816	0.031938	-0.008669	0	0	0	-0.12445	-0.0083604	0.021047	-0.15971	0.066508	0.10649	-0.12368	-0.089218	0.098983
542	5.0978	-0.11915	0.058359	0.11039	-0.12137	0.19272	0.32534	-0.13876	0.21386	0.30914	-0.046816	-0.15316	-0.008669	-0.046816	0.031938	-0.008669	0	0	0	-0.12424	-0.0079789	0.020934	-0.15951	0.066254	0.10687	-0.12321	-0.089292	0.098282
543	5.1072	-0.11904	0.058229	0.11101	-0.12087	0.18878	0.32721	-0.1384	0.21005	0.31141	-0.046816	-0.15316	-0.008669	-0.046816	0.031938	-0.008669	0	0	0	-0.12404	-0.0075882	0.020824	-0.15929	0.066002	0.10727	-0.12274	-0.089362	0.097584
544	5.1166	-0.11894	0.0581	0.11165	-0.12033	0.18472	0.32907	-0.138	0.20611	0.3137	-0.046816	-0.15316	-0.008669	-0.046816	0.031938	-0.008669	0	0	0	-0.12383	-0.0071888	0.020716	-0.15906	0.065751	0.10768	-0.12226	-0.08943	0.096887
545	5.126	-0.11882	0.057973	0.1123	-0.11976	0.18055	0.33094	-0.13758	0.20205	0.316	-0.046816	-0.15316	-0.008669	-0.046816	0.031938	-0.008669	0	0	0	-0.12362	-0.0067812	0.020612	-0.15882	0.065503	0.10809	-0.12178	-0.089494	0.096194
546	5.1355	-0.1187	0.057847	0.11298	-0.11915	0.17626	0.33279	-0.13713	0.19787	0.31831	-0.046816	-0.15316	-0.008669	-0.046816	0.031938	-0.008669	0	0	0	-0.12342	-0.0063659	0.02051	-0.15856	0.065255	0.10852	-0.12129	-0.089555	0.095503
547	5.1449	-0.11857	0.057721	0.11368	-0.11851	0.17187	0.33464	-0.13666	0.19358	0.32061	-0.046816	-0.15316	-0.008669	-0.046816	0.031938	-0.008669	0	0	0	-0.12322	-0.0059432	0.020412	-0.15829	0.065009	0.10895	-0.12079	-0.089614	0.094815
548	5.1543	-0.11843	0.057596	0.11439	-0.11784	0.16738	0.33648	-0.13617	0.18919	0.32292	-0.046816	-0.15316	-0.008669	-0.046816	0.031938	-0.008669	0	0	0	-0.12302	-0.0055138	0.020316	-0.15801	0.064765	0.10939	-0.12029	-0.089669	0.09413
549	5.1637	-0.11829	0.057471	0.11512	-0.11715	0.16279	0.33831	-0.13566	0.18469	0.32523	-0.046816	-0.15316	-0.008669	-0.046816	0.031938	-0.008669	0	0	0	-0.12282	-0.0050779	0.020224	-0.15772	0.064522	0.10984	-0.11979	-0.089721	0.093448
550	5.1731	-0.11815	0.057347	0.11586	-0.11643	0.15812	0.34012	-0.13513	0.1801	0.32753	-0.046816	-0.15316	-0.008669	-0.046816	0.031938	-0.008669	0	0	0	-0.12263	-0.0046362	0.020135	-0.15742	0.064281	0.11029	-0.11929	-0.089769	0.092769
551	5.1826	-0.118	0.057222	0.11662	-0.11569	0.15336	0.34191	-0.13459	0.17543	0.32982	-0.046816	-0.15316	-0.008669	-0.046816	0.031938	-0.008669	0	0	0	-0.12244	-0.0041891	0.020049	-0.15711	0.064041	0.11075	-0.11878	-0.089815	0.092093
552	5.192	-0.11785	0.057098	0.11738	-0.11493	0.14853	0.34369	-0.13403	0.17067	0.3321	-0.046816	-0.15316	-0.008669	-0.046816	0.031938	-0.008669	0	0	0	-0.12225	-0.0037369	0.019967	-0.1568	0.063802	0.11121	-0.11828	-0.089857	0.09142
553	5.2014	-0.11769	0.056974	0.11816	-0.11416	0.14363	0.34544	-0.13347	0.16583	0.33437	-0.046816	-0.15316	-0.008669	-0.046816	0.031938	-0.008669	0	0	0	-0.12206	-0.0032803	0.019889	-0.15648	0.063565	0.11168	-0.11777	-0.089896	0.090751
554	5.2108	-0.11753	0.056849	0.11895	-0.11337	0.13866	0.34717	-0.13289	0.16093	0.33661	-0.046816	-0.15316	-0.008669	-0.046816	0.031938	-0.008669	0	0	0	-0.12188	-0.0028196	0.019814	-0.15615	0.063329	0.11215	-0.11727	-0.089931	0.090086
555	5.2203	-0.11737	0.056723	0.11975	-0.11258	0.13363	0.34886	-0.1323	0.15596	0.33883	-0.046816	-0.15316	-0.008669	-0.046816	0.031938	-0.008669	0	0	0	-0.1217	-0.0023553	0.019742	-0.15582	0.063095	0.11263	-0.11677	-0.089963	0.089424
556	5.2297	-0.11721	0.056597	0.12055	-0.11177	0.12855	0.35053	-0.13171	0.15093	0.34103	-0.046816	-0.15316	-0.008669	-0.046816	0.031938	-0.008669	0	0	0	-0.12152	-0.0018879	0.019675	-0.15549	0.062861	0.11311	-0.11627	-0.089992	0.088766
557	5.2391	-0.11704	0.05647	0.12136	-0.11097	0.12343	0.35217	-0.13111	0.14585	0.3432	-0.046816	-0.15316	-0.008669	-0.046816	0.031938	-0.008669	0	0	0	-0.12135	-0.0014179	0.019611	-0.15515	0.062629	0.11359	-0.11578	-0.090018	0.088112
558	5.2485	-0.11687	0.056341	0.12217	-0.11016	0.11826	0.35377	-0.13051	0.14072	0.34533	-0.046816	-0.15316	-0.008669	-0.046816	0.031938	-0.008669	0	0	0	-0.12119	-0.00094567	0.019552	-0.15481	0.062398	0.11407	-0.11529	-0.09004	0.087461
559	5.258	-0.11671	0.056212	0.12299	-0.10935	0.11305	0.35534	-0.12992	0.13555	0.34743	-0.046816	-0.15316	-0.008669	-0.046816	0.031938	-0.008669	0	0	0	-0.12102	-0.00047172	0.019496	-0.15447	0.062169	0.11456	-0.11481	-0.090058	0.086815
560	5.2674	-0.11654	0.056081	0.12381	-0.10854	0.10781	0.35686	-0.12932	0.13035	0.34949	-0.046816	-0.15316	-0.008669	-0.046816	0.031938	-0.008669	0	0	0	-0.12086	3.4953e-06	0.019445	-0.15413	0.06194	0.11504	-0.11434	-0.090073	0.086173
561	5.2768	-0.11637	0.055949	0.12463	-0.10774	0.10255	0.35834	-0.12872	0.12511	0.35151	-0.046816	-0.15316	-0.008669	-0.046816	0.031938	-0.008669	0	0	0	-0.12071	0.00047951	0.019397	-0.15379	0.061713	0.11553	-0.11387	-0.090085	0.085535
562	5.2862	-0.1162	0.055815	0.12545	-0.10695	0.097267	0.35978	-0.12814	0.11986	0.35348	-0.046816	-0.15316	-0.008669	-0.046816	0.031938	-0.008669	0	0	0	-0.12056	0.00095585	0.019354	-0.15346	0.061486	0.11602	-0.11341	-0.090093	0.084902
563	5.2956	-0.11604	0.055678	0.12627	-0.10617	0.091972	0.36117	-0.12755	0.11458	0.35541	-0.046816	-0.15316	-0.008669	-0.046816	0.031938	-0.008669	0	0	0	-0.12042	0.0014321	0.019315	-0.15312	0.061261	0.1165	-0.11296	-0.090098	0.084273
564	5.3051	-0.11587	0.05554	0.12708	-0.1054	0.086669	0.36251	-0.12698	0.10929	0.35728	-0.046816	-0.15316	-0.008669	-0.046816	0.031938	-0.008669	0	0	0	-0.12028	0.0019077	0.019281	-0.1528	0.061037	0.11699	-0.11253	-0.090099	0.083649
565	5.3145	-0.11571	0.0554	0.12789	-0.10465	0.081365	0.36379	-0.12642	0.104	0.3591	-0.046816	-0.15316	-0.008669	-0.046816	0.031938	-0.008669	0	0	0	-0.12015	0.0023823	0.019251	-0.15247	0.060814	0.11747	-0.1121	-0.090096	0.08303
566	5.3239	-0.11555	0.055257	0.1287	-0.10392	0.076064	0.36503	-0.12587	0.098703	0.36085	-0.046816	-0.15316	-0.008669	-0.046816	0.031938	-0.008669	0	0	0	-0.12003	0.0028553	0.019226	-0.15215	0.060592	0.11795	-0.11169	-0.09009	0.082415
567	5.3333	-0.11539	0.055112	0.1295	-0.10321	0.070773	0.3662	-0.12534	0.093413	0.36255	-0.046816	-0.15316	-0.008669	-0.046816	0.031938	-0.008669	0	0	0	-0.11991	0.0033264	0.019205	-0.15184	0.06037	0.11843	-0.11129	-0.09008	0.081805
568	5.3428	-0.11523	0.054964	0.13029	-0.10253	0.065497	0.36732	-0.12482	0.088135	0.36418	-0.046816	-0.15316	-0.008669	-0.046816	0.031938	-0.008669	0	0	0	-0.11979	0.003795	0.01919	-0.15154	0.06015	0.1189	-0.1109	-0.090066	0.0812
569	5.3522	-0.11508	0.054813	0.13108	-0.10188	0.060242	0.36837	-0.12432	0.082874	0.36575	-0.046816	-0.15316	-0.008669	-0.046816	0.031938	-0.008669	0	0	0	-0.11969	0.0042607	0.019179	-0.15124	0.059931	0.11937	-0.11053	-0.090049	0.080601
570	5.3616	-0.11493	0.054659	0.13185	-0.10125	0.055014	0.36936	-0.12384	0.077635	0.36724	-0.046816	-0.15316	-0.008669	-0.046816	0.031938	-0.008669	0	0	0	-0.11958	0.004723	0.019172	-0.15096	0.059712	0.11984	-0.11017	-0.090028	0.080007
571	5.371	-0.11479	0.054501	0.13261	-0.10066	0.049818	0.37028	-0.12339	0.072426	0.36865	-0.046816	-0.15316	-0.008669	-0.046816	0.031938	-0.008669	0	0	0	-0.11949	0.0051814	0.019171	-0.15069	0.059494	0.1203	-0.10984	-0.090003	0.079418
572	5.3804	-0.11465	0.054341	0.13336	-0.1001	0.044661	0.37113	-0.12296	0.067251	0.36999	-0.046816	-0.15316	-0.008669	-0.046816	0.031938	-0.008669	0	0	0	-0.11941	0.0056356	0.019175	-0.15042	0.059277	0.12075	-0.10952	-0.089974	0.078834
573	5.3899	-0.11452	0.054177	0.1341	-0.099577	0.039548	0.37191	-0.12255	0.062116	0.37125	-0.046816	-0.15316	-0.008669	-0.046816	0.031938	-0.008669	0	0	0	-0.11933	0.006085	0.019184	-0.15017	0.059061	0.1212	-0.10921	-0.089942	0.078256
574	5.3993	-0.11439	0.054008	0.13482	-0.099098	0.034484	0.37262	-0.12217	0.057027	0.37242	-0.046816	-0.15316	-0.008669	-0.046816	0.031938	-0.008669	0	0	0	-0.11926	0.0065292	0.019199	-0.14994	0.058846	0.12164	-0.10893	-0.089906	0.077684
575	5.4087	-0.11427	0.053837	0.13552	-0.098662	0.029476	0.37324	-0.12182	0.05199	0.3735	-0.046816	-0.15316	-0.008669	-0.046816	0.031938	-0.008669	0	0	0	-0.11919	0.0069677	0.019218	-0.14971	0.058631	0.12208	-0.10867	-0.089866	0.077118
576	5.4181	-0.11416	0.053661	0.13621	-0.098272	0.024529	0.37379	-0.12151	0.047011	0.3745	-0.046816	-0.15316	-0.008669	-0.046816	0.031938	-0.008669	0	0	0	-0.11914	0.0074	0.019244	-0.14951	0.058417	0.12251	-0.10843	-0.089822	0.076557
577	5.4276	-0.11405	0.05348	0.13688	-0.09793	0.019649	0.37426	-0.12123	0.042096	0.37539	-0.046816	-0.15316	-0.008669	-0.046816	0.031938	-0.008669	0	0	0	-0.11909	0.0078257	0.019274	-0.14932	0.058204	0.12293	-0.10821	-0.089774	0.076002
578	5.437	-0.11395	0.053296	0.13753	-0.09764	0.014841	0.37464	-0.12098	0.03725	0.37619	-0.046816	-0.15316	-0.008669	-0.046816	0.031938	-0.008669	0	0	0	-0.11905	0.0082443	0.01931	-0.14914	0.057992	0.12334	-0.10802	-0.089722	0.075454
579	5.4464	-0.11385	0.053106	0.13815	-0.097404	0.010112	0.37493	-0.12077	0.032479	0.37689	-0.046816	-0.15316	-0.008669	-0.046816	0.031938	-0.008669	0	0	0	-0.11902	0.0086553	0.019352	-0.14899	0.05778	0.12374	-0.10785	-0.089666	0.074912
580	5.4558	-0.11377	0.052912	0.13876	-0.097225	0.0054674	0.37514	-0.1206	0.02779	0.37749	-0.046816	-0.15316	-0.008669	-0.046816	0.031938	-0.008669	0	0	0	-0.119	0.0090584	0.019399	-0.14885	0.057568	0.12413	-0.1077	-0.089606	0.074376
581	5.4653	-0.1137	0.052714	0.13934	-0.097105	0.00091241	0.37525	-0.12047	0.023187	0.37797	-0.046816	-0.15316	-0.008669	-0.046816	0.031938	-0.008669	0	0	0	-0.11899	0.0094529	0.019452	-0.14874	0.057357	0.12452	-0.10758	-0.089542	0.073846
582	5.4747	-0.11363	0.05251	0.1399	-0.097047	-0.0035469	0.37527	-0.12038	0.018677	0.37835	-0.046816	-0.15316	-0.008669	-0.046816	0.031938	-0.008669	0	0	0	-0.11899	0.0098386	0.019512	-0.14864	0.057147	0.12489	-0.10749	-0.089475	0.073323
